<?xml version="1.0" standalone="no"?>
<!DOCTYPE svg PUBLIC "-//W3C//DTD SVG 20010904//EN"
 "http://www.w3.org/TR/2001/REC-SVG-20010904/DTD/svg10.dtd">
<svg version="1.0" xmlns="http://www.w3.org/2000/svg"
 width="1400.000000pt" height="1400.000000pt" viewBox="0 0 1400.000000 1400.000000"
 preserveAspectRatio="xMidYMid meet">
<metadata>
Created by potrace 1.14, written by Peter Selinger 2001-2017
</metadata>
<g transform="translate(0.000000,1400.000000) scale(0.100000,-0.100000)"
fill="#000000" stroke="none">
<path d="M6908 11647 c-31 -7 -89 -30 -130 -51 -205 -108 -5133 -2754 -5192
-2788 -94 -55 -139 -99 -167 -161 l-24 -52 -3 -645 c-2 -388 1 -690 7 -757 12
-133 51 -261 112 -365 49 -84 151 -195 234 -253 66 -47 5034 -2714 5124 -2751
77 -32 185 -32 262 -1 31 13 1168 621 2527 1350 1360 730 2474 1327 2477 1327
3 0 5 -186 3 -412 l-3 -413 -31 -65 c-20 -43 -48 -80 -80 -109 -35 -31 -747
-417 -2537 -1376 l-2487 -1334 -2647 1420 c-1455 780 -2652 1419 -2660 1419
-16 0 -237 -328 -237 -353 -1 -14 595 -338 2696 -1466 1483 -797 2719 -1454
2745 -1462 67 -20 158 -17 218 5 59 23 5101 2726 5160 2766 135 93 257 281
307 473 20 77 21 113 25 562 5 510 0 593 -38 673 -33 68 -107 136 -176 162
-71 26 -195 29 -264 6 -26 -9 -1190 -630 -2588 -1380 l-2541 -1365 -2487 1335
c-2193 1176 -2494 1340 -2539 1385 -55 54 -97 128 -113 200 -6 26 -11 212 -11
448 0 380 1 403 18 396 9 -3 1132 -605 2495 -1336 1362 -732 2496 -1337 2518
-1345 54 -19 174 -18 231 1 74 26 5329 2850 5375 2890 25 21 55 62 75 103 31
62 33 74 33 167 0 87 -3 107 -26 156 -15 32 -45 74 -66 95 -29 29 -731 410
-2676 1452 -1450 778 -2658 1422 -2686 1432 -66 26 -163 32 -233 17z m2722
-1861 c1328 -711 2414 -1297 2413 -1301 -3 -15 -5019 -2699 -5043 -2699 -26 0
-5041 2685 -5042 2700 0 4 1133 616 2518 1359 l2519 1352 110 -58 c61 -32
1197 -641 2525 -1353z"/>
</g>
</svg>
